<svg width="22" height="22" viewBox="0 0 22 22" fill="none" xmlns="http://www.w3.org/2000/svg">
<g clip-path="url(#clip0_7_2001)">
<path fill-rule="evenodd" clip-rule="evenodd" d="M0.653961 3.27606C0 4.55953 0 6.23969 0 9.6V12.4C0 15.7603 0 17.4405 0.653961 18.7239C1.2292 19.8529 2.14708 20.7708 3.27606 21.346C4.55953 22 6.23969 22 9.6 22H12.4C15.7603 22 17.4405 22 18.7239 21.346C19.8529 20.7708 20.7708 19.8529 21.346 18.7239C22 17.4405 22 15.7603 22 12.4V9.6C22 6.23969 22 4.55953 21.346 3.27606C20.7708 2.14708 19.8529 1.2292 18.7239 0.653961C17.4405 0 15.7603 0 12.4 0H9.6C6.23969 0 4.55953 0 3.27606 0.653961C2.14708 1.2292 1.2292 2.14708 0.653961 3.27606Z" fill="#CB11AB"/>
<path fill-rule="evenodd" clip-rule="evenodd" d="M17.7354 6.67929L9.58662 15.4839L5.25781 10.6682L6.74523 9.33115L9.60819 12.5162L16.2676 5.3208L17.7354 6.67929Z" fill="white"/>
</g>
<defs>
<clipPath id="clip0_7_2001">
<rect width="22" height="22" fill="white"/>
</clipPath>
</defs>
</svg> 