<svg width="24" height="25" viewBox="0 0 24 25" fill="none" xmlns="http://www.w3.org/2000/svg">
  <path fill-rule="evenodd" clip-rule="evenodd" d="M4.92961 18.1568C4.53909 18.5473 4.53909 19.1805 4.92961 19.571C5.32014 19.9615 5.9533 19.9615 6.34383 19.571L12.0008 13.914L17.658 19.5711C18.0485 19.9616 18.6817 19.9616 19.0722 19.5711C19.4627 19.1806 19.4627 18.5474 19.0722 18.1569L13.4151 12.4998L19.0717 6.84309C19.4623 6.45257 19.4623 5.8194 19.0717 5.42888C18.6812 5.03835 18.0481 5.03836 17.6575 5.42888L12.0008 11.0856L6.34427 5.42899C5.95374 5.03846 5.32058 5.03846 4.93005 5.42899C4.53953 5.81951 4.53953 6.45267 4.93005 6.8432L10.5866 12.4998L4.92961 18.1568Z" fill="#9797AF"/>
</svg>