<svg width="24" height="15" viewBox="0 0 24 15" fill="none" xmlns="http://www.w3.org/2000/svg">
  <path fill-rule="evenodd" clip-rule="evenodd" d="M22.9337 11.8367V11.5649H22.8629L22.781 11.7514L22.6996 11.5649H22.6286V11.8367H22.6788V11.632L22.7554 11.8086H22.8075L22.884 11.6315V11.8367H22.9339H22.9337ZM22.4846 11.8367V11.6115H22.5752V11.5656H22.3438V11.6115H22.4343V11.8367H22.4846Z" fill="#F79410"/>
  <path fill-rule="evenodd" clip-rule="evenodd" d="M14.8883 13.0014H8.76367V1.99463H14.8884L14.8883 13.0014Z" fill="#FF5F00"/>
  <path fill-rule="evenodd" clip-rule="evenodd" d="M9.15147 7.49987C9.15147 5.26713 10.1969 3.27821 11.8248 1.99643C10.5928 1.02498 9.06814 0.497414 7.49923 0.499764C3.63356 0.499764 0.5 3.63376 0.5 7.49987C0.5 11.3659 3.63356 14.4999 7.49923 14.4999C9.06814 14.5023 10.5929 13.9747 11.8249 13.0032C10.1971 11.7217 9.15147 9.73269 9.15147 7.49987Z" fill="#EB001B"/>
  <path fill-rule="evenodd" clip-rule="evenodd" d="M23.1497 7.49987C23.1497 11.3659 20.0161 14.4999 16.1505 14.4999C14.5814 14.5022 13.0565 13.9747 11.8242 13.0032C13.4526 11.7215 14.498 9.73269 14.498 7.49987C14.498 5.26699 13.4526 3.27821 11.8242 1.99643C13.0564 1.02498 14.5813 0.497487 16.1504 0.499763C20.016 0.499763 23.1496 3.63376 23.1496 7.49987" fill="#F79410"/>
</svg>